<?xml version="1.0" encoding="UTF-8" standalone="no"?>
<!-- Created with Inkscape (http://www.inkscape.org/) -->

<svg
   xmlns:dc="http://purl.org/dc/elements/1.1/"
   xmlns:cc="http://creativecommons.org/ns#"
   xmlns:rdf="http://www.w3.org/1999/02/22-rdf-syntax-ns#"
   xmlns:svg="http://www.w3.org/2000/svg"
   xmlns="http://www.w3.org/2000/svg"
   xmlns:sodipodi="http://sodipodi.sourceforge.net/DTD/sodipodi-0.dtd"
   xmlns:inkscape="http://www.inkscape.org/namespaces/inkscape"
   width="210mm"
   height="297mm"
   viewBox="0 0 744.09448819 1052.3622047"
   id="svg2"
   version="1.1"
   inkscape:version="0.91 r13725"
   sodipodi:docname="logo.svg"
   enable-background="new">
  <defs
     id="defs4" />
  <sodipodi:namedview
     id="base"
     pagecolor="#ffffff"
     bordercolor="#666666"
     borderopacity="1.0"
     inkscape:pageopacity="0.0"
     inkscape:pageshadow="2"
     inkscape:zoom="0.98994949"
     inkscape:cx="114.88107"
     inkscape:cy="686.16136"
     inkscape:document-units="px"
     inkscape:current-layer="layer1"
     showgrid="false"
     inkscape:window-width="1536"
     inkscape:window-height="801"
     inkscape:window-x="1272"
     inkscape:window-y="-8"
     inkscape:window-maximized="1"
     inkscape:snap-nodes="false"
     inkscape:snap-page="false"
     inkscape:snap-bbox="true"
     inkscape:snap-grids="false"
     inkscape:snap-to-guides="false"
     inkscape:snap-others="false"
     inkscape:snap-bbox-midpoints="true"
     inkscape:bbox-nodes="true"
     inkscape:snap-bbox-edge-midpoints="true"
     inkscape:snap-global="true"
     inkscape:snap-midpoints="true"
     inkscape:object-nodes="true"
     inkscape:snap-smooth-nodes="true"
     inkscape:object-paths="true"
     inkscape:snap-intersection-paths="true"
     inkscape:bbox-paths="true" />
  <metadata
     id="metadata7">
    <rdf:RDF>
      <cc:Work
         rdf:about="">
        <dc:format>image/svg+xml</dc:format>
        <dc:type
           rdf:resource="http://purl.org/dc/dcmitype/StillImage" />
        <dc:title></dc:title>
      </cc:Work>
    </rdf:RDF>
  </metadata>
  <g
     inkscape:label="Vrstva 1"
     inkscape:groupmode="layer"
     id="layer1"
     style="display:inline;opacity:1">
    <rect
       style="fill:#000000;fill-opacity:1;stroke:#000000;stroke-width:9.75730801;stroke-linecap:butt;stroke-linejoin:miter;stroke-miterlimit:4;stroke-dasharray:none;stroke-opacity:1"
       id="rect4136"
       width="448.51224"
       height="235.74249"
       x="64.197121"
       y="376.09482"
       ry="17.172594"
       rx="19.194576" />
    <path
       style="fill-opacity:1;stroke-width:10;stroke-linecap:butt;stroke-linejoin:round;stroke-miterlimit:4;stroke-dasharray:none;stroke-opacity:1"
       d="M 328.80466,435.31326 445.98235,492.38688 328.80466,549.4605 Z"
       id="rect4161"
       inkscape:connector-curvature="0"
       sodipodi:nodetypes="cccc" />
    <path
       style="fill:#000000;fill-opacity:1;stroke:#000000;stroke-width:3.7420001;stroke-linecap:round;stroke-linejoin:round;stroke-miterlimit:4;stroke-dasharray:none;stroke-dashoffset:27.42000198;stroke-opacity:1"
       d="m 103.26595,365.15914 231.8947,-69.03275 c 4.85249,-1.44454 6.3555,-2.43807 7.23613,-0.0427 l 0.77041,2.09557 c 0.67901,1.84695 -1.35378,2.63031 -6.16968,4.20728 L 145.8154,364.98901 c -2.35986,0.77273 -42.19001,-1.02569 -37.63216,-0.89187 l 35.03698,1.02875 c 0,0 -30.55801,0.0562 -35.97681,0.043 z"
       id="rect4164"
       inkscape:connector-curvature="0"
       sodipodi:nodetypes="csssssscsc" />
    <path
       style="fill:#000000;stroke:#000000;stroke-width:4.7;stroke-miterlimit:4;stroke-dasharray:none;stroke-opacity:1;stroke-linejoin:miter"
       d="m 387.97625,263.48076 c 1.07702,-1.72972 6.08524,1.08274 9.73221,5.46533 3.30392,3.9703 5.14595,8.06277 5.64491,12.54128 0.7611,6.83144 -1.98216,15.28687 -4.64949,14.33082 -1.74161,-0.62424 -2.06929,-1.94155 -1.01063,-4.0631 1.51662,-3.03924 1.97827,-6.07173 1.51921,-9.97906 -0.68793,-5.85493 -3.68244,-10.74813 -8.72319,-14.25399 -2.06757,-1.43798 -3.10011,-3.09843 -2.51302,-4.04128 z m 28.23565,37.58077 c 9.08571,-16.88066 4.69786,-35.47405 -11.51243,-48.78366 -4.46337,-3.66468 -4.51021,-3.71553 -4.40213,-4.77557 0.20111,-1.97232 2.62205,-1.49966 6.11358,1.19359 15.32964,11.82495 22.17454,30.60077 16.92127,46.41583 -1.62084,4.87957 -4.46404,10.25885 -5.52934,10.4614 -1.09315,0.20784 -2.60066,-0.55336 -2.81115,-1.41947 -0.076,-0.31261 0.47292,-1.70417 1.2202,-3.09212 z m 18.8575,9.25106 c 4.505,-8.54125 6.64999,-18.64879 6.03229,-28.42536 -0.44651,-7.06904 -3.94682,-18.82473 -7.41357,-24.89897 -5.20069,-9.11236 -13.16662,-17.8079 -21.01008,-22.93445 -2.30569,-1.507 -3.32299,-2.51427 -3.44425,-3.41024 -0.50146,-3.70576 4.89596,-1.13083 13.32618,6.35745 9.62614,8.55062 15.47968,17.48137 19.46744,29.70164 3.71986,11.39935 4.31201,20.60809 2.01481,31.33316 -1.67265,7.80908 -6.79744,19.13269 -8.83425,19.51994 -1.0768,0.20472 -2.58438,-0.56897 -2.7775,-1.4259 -0.0707,-0.31363 1.11681,-2.93139 2.63893,-5.81727 z m 17.34992,12.01911 c 7.41557,-12.94901 10.37412,-25.79709 9.48112,-41.17338 -0.38632,-6.65108 -5.4469,-24.31442 -8.71631,-30.42286 -3.37065,-6.29767 -6.78644,-11.27432 -11.58201,-16.87456 -5.10382,-5.96022 -9.06286,-9.53153 -16.6887,-15.0542 -4.89654,-3.5461 -5.72691,-4.35156 -5.49227,-5.32735 0.42969,-1.78668 1.96492,-1.68451 5.10359,0.33969 11.77064,7.59123 22.26111,18.40117 29.58727,30.48831 7.68757,12.68336 12.17284,29.15389 12.00037,44.06676 -0.12895,11.14625 -3.55082,24.23919 -8.90177,34.06021 -3.11288,5.71331 -4.23958,6.85 -5.82797,5.8796 -0.60968,-0.37248 -1.17538,-0.91125 -1.25712,-1.19727 -0.0816,-0.28605 0.95043,-2.43925 2.29377,-4.78493 z"
       id="path4202"
       inkscape:connector-curvature="0"
       inkscape:transform-center-x="-34.722979"
       inkscape:transform-center-y="-6.1059088" />
    <g
       id="g4235"
       style="fill:#ffffff;fill-opacity:1;stroke:#ffffff;stroke-width:3.99999976;stroke-linecap:square;stroke-linejoin:round;stroke-miterlimit:4;stroke-dasharray:none;stroke-opacity:1"
       transform="matrix(1.0713239,0,0,1.0932525,-1.3406417,-39.864315)">
      <rect
         ry="9.0913725"
         rx="2.0001955"
         y="462.40192"
         x="117.24056"
         height="9.0913725"
         width="116.16754"
         id="rect4204"
         style="fill:#ffffff;fill-opacity:1;stroke:#ffffff;stroke-width:3.99999976;stroke-linecap:square;stroke-linejoin:miter;stroke-miterlimit:4;stroke-dasharray:none;stroke-opacity:1" />
      <rect
         ry="8.5557623"
         rx="2.0001955"
         y="483.41846"
         x="106.0798"
         height="8.5557623"
         width="137.01717"
         id="rect4204-2"
         style="fill:#ffffff;fill-opacity:1;stroke:#ffffff;stroke-width:3.99999976;stroke-linecap:square;stroke-linejoin:round;stroke-miterlimit:4;stroke-dasharray:none;stroke-opacity:1" />
      <rect
         ry="9.0913725"
         rx="1.6668295"
         y="503.94543"
         x="117.24056"
         height="9.0913725"
         width="116.16754"
         id="rect4204-0"
         style="fill:#ffffff;fill-opacity:1;stroke:#ffffff;stroke-width:3.99999976;stroke-linecap:square;stroke-linejoin:round;stroke-miterlimit:4;stroke-dasharray:none;stroke-opacity:1" />
    </g>
    <ellipse
       style="opacity:1;fill:#ffffff;fill-opacity:1;stroke:none;stroke-width:10;stroke-linecap:square;stroke-linejoin:round;stroke-miterlimit:4;stroke-dasharray:none;stroke-opacity:1"
       id="path4649-9"
       cx="353.84567"
       cy="256.42303"
       rx="6.1340504"
       ry="10.033661"
       transform="matrix(0.99478525,0.10199168,-0.01809574,0.99983626,0,0)"
       inkscape:transform-center-x="-0.068699178"
       inkscape:transform-center-y="0.50332278" />
    <ellipse
       style="display:inline;opacity:1;fill:#000001;fill-opacity:1;stroke:none;stroke-width:10;stroke-linecap:square;stroke-linejoin:round;stroke-miterlimit:4;stroke-dasharray:none;stroke-opacity:1"
       id="path4649-3"
       cx="304.64459"
       cy="321.88132"
       rx="9.7053394"
       ry="14.188289"
       transform="matrix(0.99649127,-0.08369674,0.16402073,0.98645689,0,0)"
       inkscape:transform-center-x="-0.23794193"
       inkscape:transform-center-y="0.68084978" />
    <rect
       style="opacity:1;fill:#000001;fill-opacity:1;stroke:#000000;stroke-width:11.60000038;stroke-linecap:butt;stroke-linejoin:miter;stroke-miterlimit:26.70000076;stroke-dasharray:none;stroke-opacity:1"
       id="rect4749"
       width="106.42857"
       height="0"
       x="108.21429"
       y="287.71936"
       rx="29.294399"
       ry="0" />
  </g>
  <g
     inkscape:groupmode="layer"
     id="layer2"
     inkscape:label="Vrstva 2"
     style="display:inline" />
</svg>
