<?xml version="1.0" encoding="UTF-8" standalone="no"?>
<!-- Created with Inkscape (http://www.inkscape.org/) -->

<svg
   xmlns:dc="http://purl.org/dc/elements/1.1/"
   xmlns:cc="http://creativecommons.org/ns#"
   xmlns:rdf="http://www.w3.org/1999/02/22-rdf-syntax-ns#"
   xmlns:svg="http://www.w3.org/2000/svg"
   xmlns="http://www.w3.org/2000/svg"
   xmlns:sodipodi="http://sodipodi.sourceforge.net/DTD/sodipodi-0.dtd"
   xmlns:inkscape="http://www.inkscape.org/namespaces/inkscape"
   width="448.51175"
   height="448.51175"
   viewBox="0 0 448.51174 448.51175"
   id="svg2"
   version="1.1"
   inkscape:version="0.91 r13725"
   sodipodi:docname="logo.svg">
  <defs
     id="defs4" />
  <sodipodi:namedview
     id="base"
     pagecolor="#ffffff"
     bordercolor="#666666"
     borderopacity="1.0"
     inkscape:pageopacity="0.0"
     inkscape:pageshadow="2"
     inkscape:zoom="0.98994949"
     inkscape:cx="198.09036"
     inkscape:cy="111.22294"
     inkscape:document-units="px"
     inkscape:current-layer="layer1"
     showgrid="false"
     fit-margin-top="0"
     fit-margin-left="0"
     fit-margin-right="0"
     fit-margin-bottom="0"
     inkscape:window-width="1536"
     inkscape:window-height="801"
     inkscape:window-x="1912"
     inkscape:window-y="294"
     inkscape:window-maximized="1"
     units="px" />
  <metadata
     id="metadata7">
    <rdf:RDF>
      <cc:Work
         rdf:about="">
        <dc:format>image/svg+xml</dc:format>
        <dc:type
           rdf:resource="http://purl.org/dc/dcmitype/StillImage" />
        <dc:title></dc:title>
      </cc:Work>
    </rdf:RDF>
  </metadata>
  <g
     inkscape:label="Vrstva 1"
     inkscape:groupmode="layer"
     id="layer1"
     transform="translate(-138.60128,-175.61831)" />
  <g
     inkscape:groupmode="layer"
     id="layer3"
     inkscape:label="Vrstva 2">
    <g
       style="enable-background:new"
       id="g4146"
       transform="translate(-64.197257,-187.32617)">
      <g
         style="display:inline;opacity:1"
         id="layer1-8"
         inkscape:label="Vrstva 1">
        <path
           inkscape:export-ydpi="546.80847"
           inkscape:export-xdpi="546.80847"
           id="rect4136"
           d="m 83.392578,376.0957 c -10.633795,0 -19.195312,7.65826 -19.195312,17.17188 l 0,201.39648 c 0,9.51362 8.561517,17.17383 19.195312,17.17383 l 410.123042,0 c 10.63381,0 19.19336,-7.66021 19.19336,-17.17383 l 0,-201.39648 c 0,-9.51362 -8.55952,-17.17188 -19.19336,-17.17188 l -410.123042,0 z m 265.388672,50.93164 0.5625,0.0449 0.48437,0.0996 0.36719,0.0937 29.76953,14.39649 29.85938,14.48437 29.01953,14.22071 29.54102,14.43164 0.51953,0.35742 0.55664,0.48437 0.47851,0.58399 0.30664,0.49219 0.27539,0.57812 0.14258,0.39258 0.10352,0.45508 0.0801,0.49414 0.0176,0.4707 -0.0137,0.4707 -0.0605,0.51758 -0.11719,0.46289 -0.17774,0.49414 -0.20117,0.42969 -0.29687,0.52344 -0.37305,0.47852 -0.50781,0.49218 -0.55078,0.39063 -29.14453,14.20508 -29.50586,14.47265 -29.63282,14.37696 -29.63086,14.43945 -0.36914,0.14062 -0.39062,0.11524 -0.38086,0.084 -0.39453,0.0469 -0.43555,0.0312 -0.48633,-0.0215 -0.49804,-0.0644 -0.48829,-0.11914 -0.58984,-0.2168 -0.52148,-0.25586 -0.48828,-0.32812 -0.5918,-0.51367 -0.5293,-0.63282 -0.34961,-0.59375 -0.19336,-0.46289 -0.16406,-0.46093 -0.14844,-0.64844 -0.0449,-0.54883 0.0352,-115.00586 0.10937,-0.51367 0.14258,-0.50977 0.19336,-0.46093 0.2168,-0.40626 0.17382,-0.27734 0.33008,-0.42773 0.28125,-0.30664 0.28321,-0.25782 0.34179,-0.27148 0.32813,-0.2168 0.36133,-0.20117 0.44531,-0.1875 0.46875,-0.16211 0.55273,-0.11523 0.52539,-0.0625 0.4043,-0.002 z m -146.4668,31.72657 c 2.53453,0.0125 5.06292,0.0441 7.58985,0.0859 5.05385,0.0836 10.8382,-0.1038 15.92578,-0.01 2.54378,0.0474 5.04391,0.0292 7.52148,-0.0156 2.47757,-0.0448 6.58437,0.0627 9.03711,0.006 2.45273,-0.057 5.66353,0.0556 8.13281,0.0664 2.46927,0.0108 0.26968,-0.19163 2.79688,-0.0332 l 2.37891,0.002 0.48437,0.0957 0.35547,0.12891 0.42773,0.23828 0.35547,0.23828 0.37891,0.34375 0.28906,0.33399 0.27149,0.36132 0.28711,0.50586 0.24414,0.48438 0.15429,0.38281 0.17188,0.51758 0.13867,0.51172 0.0879,0.36718 0.10352,0.58985 0.0762,0.52734 0.043,0.54492 0.0332,0.50586 0.0137,0.55078 -0.0137,0.40235 -0.006,0.37695 -0.0547,0.43945 -0.0527,0.58204 -0.0937,0.51171 -0.14063,0.65235 -0.23437,0.81055 -0.24414,0.65429 -0.30664,0.58985 -0.25,0.42382 -0.30664,0.36914 -0.35352,0.36914 -0.43945,0.3379 -0.56836,0.32226 -0.45508,0.14844 -0.63867,0.13867 -120.96094,-0.0391 -0.58008,-0.20899 -0.66992,-0.34375 -0.55664,-0.52343 -0.625,-0.7461 -0.37891,-0.72265 -0.33398,-0.85743 -0.20117,-0.67968 -0.24414,-0.94727 -0.0664,-0.8125 -0.043,-0.61914 -0.0176,-0.58594 0.0117,-0.76172 0.0625,-0.77929 0.0898,-0.70508 0.17773,-0.88867 0.19922,-0.69336 0.3418,-0.86719 0.34961,-0.63672 0.375,-0.5625 0.39453,-0.42578 0.50781,-0.4082 0.48633,-0.28516 0.54101,-0.18945 0.50196,-0.0899 0.49414,-0.01 c 9.40505,0.21029 18.40278,-0.0232 27.97265,-0.041 9.56986,-0.0178 19.71142,0.17929 31.40235,0 2.55282,-0.0346 5.09437,-0.0417 7.6289,-0.0293 z m 0.48243,22.26562 c 2.9652,0.0125 5.92259,0.0441 8.8789,0.0859 5.91262,0.0836 12.68072,-0.10377 18.63281,-0.01 2.97604,0.0474 5.9022,0.0292 8.80079,-0.0156 2.89857,-0.0448 7.70274,0.0627 10.57226,0.006 2.86951,-0.057 6.6248,0.0556 9.51367,0.0664 2.88887,0.0108 0.31486,-0.19152 3.27149,-0.0332 l 2.7832,0.002 0.56641,0.0957 0.41797,0.1289 0.5,0.23828 0.41601,0.23829 0.44141,0.34375 0.33789,0.33203 0.31836,0.36133 0.33789,0.50585 0.28515,0.48438 0.18164,0.38281 0.19922,0.51758 0.16211,0.50977 0.10156,0.36718 0.12305,0.58985 0.0899,0.52734 0.0488,0.54492 0.0371,0.50586 0.0195,0.55078 -0.0176,0.40039 -0.008,0.37696 -0.0625,0.43945 -0.0644,0.58203 -0.10742,0.51172 -0.16602,0.65234 -0.27343,0.81055 -0.28516,0.65234 -0.35938,0.58985 -0.29296,0.42383 -0.35743,0.36914 -0.41406,0.36914 -0.51562,0.33789 -0.66211,0.32226 -0.53516,0.14649 -0.74609,0.14062 -141.51563,-0.0391 -0.67969,-0.20898 -0.78125,-0.34571 -0.65234,-0.52148 -0.73242,-0.74609 -0.44336,-0.72266 -0.39063,-0.85742 -0.23437,-0.67774 -0.28711,-0.94726 -0.0762,-0.8125 -0.0488,-0.61914 -0.0234,-0.58594 0.0156,-0.75977 0.0742,-0.77929 0.10351,-0.70508 0.20899,-0.88672 0.23242,-0.69336 0.40039,-0.86523 0.4082,-0.63868 0.43946,-0.5625 0.46289,-0.42382 0.59375,-0.41016 0.56836,-0.2832 0.63281,-0.18946 0.58789,-0.0898 0.57617,-0.0117 c 11.0032,0.21017 21.53053,-0.0213 32.72656,-0.0391 11.19602,-0.0178 23.06077,0.17919 36.73828,0 2.98661,-0.0346 5.96057,-0.0418 8.92579,-0.0293 z m 0.40039,22.74609 c 2.53452,0.0125 5.06291,0.0441 7.58984,0.0859 5.05385,0.0836 10.84015,-0.1038 15.92773,-0.01 2.54378,0.0474 5.04392,0.0292 7.52149,-0.0156 2.47757,-0.0448 6.58437,0.0627 9.03711,0.006 2.45273,-0.057 5.66158,0.0556 8.13086,0.0664 2.46927,0.0108 0.26967,-0.19165 2.79687,-0.0332 l 2.37891,0.002 0.48437,0.0957 0.35743,0.13086 0.42773,0.23633 0.35547,0.23828 0.37695,0.34375 0.28906,0.33398 0.27149,0.36133 0.28906,0.50586 0.24414,0.48438 0.1543,0.38281 0.17187,0.51758 0.13672,0.51172 0.0879,0.36718 0.10547,0.58985 0.0762,0.52734 0.043,0.54492 0.0312,0.50782 0.0156,0.55078 -0.0156,0.40039 -0.006,0.37695 -0.0527,0.43945 -0.0547,0.58203 -0.0918,0.51172 -0.14062,0.65235 -0.23633,0.8125 -0.24219,0.65234 -0.30664,0.58984 -0.25195,0.42383 -0.30469,0.36914 -0.35351,0.36914 -0.44141,0.33789 -0.56641,0.32227 -0.45703,0.14844 -0.63672,0.14062 -120.96289,-0.0391 -0.58007,-0.21094 -0.66797,-0.34375 -0.5586,-0.52343 -0.625,-0.7461 -0.3789,-0.72266 -0.33399,-0.85742 -0.19922,-0.67968 -0.24609,-0.94727 -0.0664,-0.8125 -0.041,-0.61914 -0.0195,-0.58594 0.0137,-0.76172 0.0625,-0.77929 0.0898,-0.70508 0.17774,-0.88672 0.19921,-0.69336 0.3418,-0.86719 0.34766,-0.63867 0.375,-0.5625 0.39648,-0.42383 0.50586,-0.41015 0.48633,-0.28516 0.54297,-0.1875 0.50195,-0.0918 0.49219,-0.01 c 9.40505,0.21029 18.40474,-0.0232 27.97461,-0.041 9.56986,-0.0178 19.70946,0.17929 31.40039,0 2.55282,-0.0346 5.09438,-0.0417 7.62891,-0.0293 z"
           style="fill:#f2f2f2;fill-opacity:1;stroke:#000000;stroke-width:0;stroke-linecap:butt;stroke-linejoin:miter;stroke-miterlimit:4;stroke-dasharray:none;stroke-opacity:1"
           inkscape:connector-curvature="0" />
        <path
           inkscape:export-ydpi="546.80847"
           inkscape:export-xdpi="546.80847"
           sodipodi:nodetypes="csccccccccccccccssccssscscsscsccccccc"
           inkscape:connector-curvature="0"
           id="rect4164"
           d="m 331.94376,297.65839 c -1.09833,-0.0609 -2.81514,0.66517 -5.60407,1.50376 l -234.2612,68.37581 -0.492097,0.27457 -0.306958,0.28969 -0.197583,0.30532 -0.13561,0.29376 -0.100604,0.43634 0.01397,0.37257 0.0764,0.39929 0.105009,0.23829 0.206594,0.33216 0.258437,0.259 0.22328,0.16134 0.344374,0.16916 0.348281,0.0871 c 0.400998,0.0604 0.771723,0.0348 1.161319,0.0306 0.389595,-0.004 0.79806,0.0128 1.180786,0.002 0.765452,-0.0211 1.5217,0.004 2.255629,-0.005 4.913563,0.13653 11.279633,-0.1328 15.528663,-0.006 1.32916,0.0737 2.38338,5.2e-4 3.49017,-0.006 1.10679,-0.006 2.26616,0.0539 3.43063,0.0196 1.16447,-0.0343 2.47199,-0.0253 3.72419,-0.0353 1.25221,-0.01 2.44911,-0.0392 3.5691,0.0273 0.75812,0.0339 3.59719,0.0437 4.08605,0.0367 0.12221,-0.002 1.84157,0.0308 2.5263,-0.0607 0.83831,-0.0294 1.20769,-0.0327 2.00709,-0.19361 0.3997,-0.0805 1.13892,-0.23161 1.54804,-0.36704 0.40912,-0.13543 0.79749,-0.25514 1.11421,-0.39775 L 327.77778,306.9988 c 3.52304,-1.17359 5.58253,-1.95418 6.27517,-3.14197 l -0.49545,-1.30441 c -0.33477,-1.02138 -0.55903,-1.78592 -0.76276,-2.7644 -0.0756,-0.36662 -0.14762,-0.76892 -0.2033,-1.14414 -0.044,-0.29683 -0.0713,-0.57619 -0.10042,-0.8598 -0.16434,-0.07 -0.34306,-0.11596 -0.54726,-0.12721 z"
           style="opacity:1;fill:#f2f2f2;fill-opacity:1;stroke:#59ffff;stroke-width:0;stroke-linecap:round;stroke-linejoin:round;stroke-miterlimit:4;stroke-dasharray:none;stroke-dashoffset:27.42000198;stroke-opacity:0.99324323" />
        <path
           inkscape:export-ydpi="546.80847"
           inkscape:export-xdpi="546.80847"
           inkscape:transform-center-y="-4.9645574"
           inkscape:transform-center-x="-34.741773"
           inkscape:connector-curvature="0"
           id="path4202"
           d="m 379.31297,269.62542 c 1.12112,-1.70147 6.0554,1.2388 9.58851,5.71368 3.20077,4.05392 4.937,8.19239 5.32067,12.68224 0.58525,6.84875 -2.37444,15.23087 -5.01632,14.20657 -1.72498,-0.6688 -2.0187,-1.9941 -0.90585,-4.08773 1.59424,-2.99925 2.13369,-6.01888 1.77521,-9.93671 -0.5372,-5.87068 -3.40494,-10.83924 -8.35391,-14.47351 -2.02993,-1.49065 -3.01944,-3.17709 -2.40831,-4.10454 z m 27.26032,38.29414 c 9.51662,-16.64154 5.60815,-35.34158 -10.25466,-49.06347 -4.3677,-3.7782 -4.41322,-3.83023 -4.27792,-4.88714 0.25174,-1.9665 2.65973,-1.43177 6.08088,1.35034 15.02061,12.21508 21.38063,31.16064 15.72258,46.83545 -1.74574,4.83629 -4.72627,10.14071 -5.79642,10.31581 -1.09813,0.17967 -2.58558,-0.62003 -2.77374,-1.49126 -0.0679,-0.31446 0.51657,-1.69145 1.29928,-3.05973 z m 18.61348,9.73272 c 4.72306,-8.42263 7.12715,-18.47169 6.76095,-28.26091 -0.26465,-7.07818 -3.46163,-18.91996 -6.7711,-25.0813 -4.96474,-9.24303 -12.70452,-18.14046 -20.41362,-23.46693 -2.26619,-1.56577 -3.25726,-2.59885 -3.35545,-3.49765 -0.40604,-3.71742 4.92341,-1.0046 13.15836,6.6979 9.40317,8.79523 15.02522,17.87349 18.69754,30.19223 3.42562,11.4912 3.78086,20.71211 1.20874,31.37459 -1.87283,7.76351 -7.28699,18.95165 -9.33308,19.28641 -1.08171,0.17698 -2.5689,-0.63521 -2.73993,-1.49682 -0.0626,-0.31535 1.19179,-2.90172 2.78759,-5.74752 z m 17.03524,12.46111 c 7.74597,-12.75411 11.03379,-25.5219 10.53633,-40.91606 -0.21523,-6.65882 -4.82011,-24.4464 -7.93143,-30.63686 -3.20765,-6.38223 -6.49439,-11.44504 -11.14443,-17.1667 -4.94892,-6.08944 -8.81486,-9.76133 -16.29622,-15.4782 -4.80377,-3.67079 -5.61316,-4.49733 -5.35352,-5.46676 0.47548,-1.77505 2.00757,-1.63345 5.09317,0.47076 11.57163,7.89128 21.78076,18.9673 28.79381,31.23876 7.35901,12.87678 11.41943,29.45716 10.86369,44.36067 -0.41542,11.13925 -4.17271,24.13991 -9.77433,33.82014 -3.25871,5.63141 -4.41426,6.73876 -5.97718,5.72785 -0.5999,-0.38803 -1.15157,-0.94116 -1.22593,-1.22919 -0.0742,-0.28805 1.01282,-2.41401 2.41601,-4.72439 z"
           style="fill:#f9f9f9;stroke:#ffffff;stroke-width:4.69999981;stroke-linejoin:miter;stroke-miterlimit:4;stroke-dasharray:none;stroke-opacity:0.98648652" />
        <ellipse
           inkscape:export-ydpi="546.80847"
           inkscape:export-xdpi="546.80847"
           inkscape:transform-center-y="0.68084978"
           inkscape:transform-center-x="-0.23794193"
           transform="matrix(0.99649127,-0.08369674,0.16402073,0.98645689,0,0)"
           ry="14.188289"
           rx="9.7053394"
           cy="326.04044"
           cx="293.9248"
           id="path4649-3"
           style="display:inline;opacity:1;fill:#f2f2f2;fill-opacity:1;stroke:none;stroke-width:10;stroke-linecap:square;stroke-linejoin:round;stroke-miterlimit:4;stroke-dasharray:none;stroke-opacity:1" />
      </g>
      <g
         style="display:inline"
         inkscape:label="Vrstva 2"
         id="layer2" />
    </g>
  </g>
</svg>
